<?xml version="1.0" ?><svg id="Capa_1" style="enable-background:new 0 0 150 150;" version="1.1" viewBox="0 0 150 150" xml:space="preserve" xmlns="http://www.w3.org/2000/svg" xmlns:xlink="http://www.w3.org/1999/xlink"><style type="text/css">
	.st0{fill:#1A73E8;}
	.st1{fill:#EA4335;}
	.st2{fill:#4285F4;}
	.st3{fill:#FBBC04;}
	.st4{fill:#34A853;}
	.st5{fill:#4CAF50;}
	.st6{fill:#1E88E5;}
	.st7{fill:#E53935;}
	.st8{fill:#C62828;}
	.st9{fill:#FBC02D;}
	.st10{fill:#1565C0;}
	.st11{fill:#2E7D32;}
	.st12{fill:#F6B704;}
	.st13{fill:#E54335;}
	.st14{fill:#4280EF;}
	.st15{fill:#34A353;}
	.st16{clip-path:url(#SVGID_2_);}
	.st17{fill:#188038;}
	.st18{opacity:0.2;fill:#FFFFFF;enable-background:new    ;}
	.st19{opacity:0.3;fill:#0D652D;enable-background:new    ;}
	.st20{clip-path:url(#SVGID_4_);}
	.st21{opacity:0.3;fill:url(#_45_shadow_1_);enable-background:new    ;}
	.st22{clip-path:url(#SVGID_6_);}
	.st23{fill:#FA7B17;}
	.st24{opacity:0.3;fill:#174EA6;enable-background:new    ;}
	.st25{opacity:0.3;fill:#A50E0E;enable-background:new    ;}
	.st26{opacity:0.3;fill:#E37400;enable-background:new    ;}
	.st27{fill:url(#Finish_mask_1_);}
	.st28{fill:#FFFFFF;}
	.st29{fill:#0C9D58;}
	.st30{opacity:0.2;fill:#004D40;enable-background:new    ;}
	.st31{opacity:0.2;fill:#3E2723;enable-background:new    ;}
	.st32{fill:#FFC107;}
	.st33{opacity:0.2;fill:#1A237E;enable-background:new    ;}
	.st34{opacity:0.2;}
	.st35{fill:#1A237E;}
	.st36{fill:url(#SVGID_7_);}
	.st37{fill:#FBBC05;}
	.st38{clip-path:url(#SVGID_9_);fill:#E53935;}
	.st39{clip-path:url(#SVGID_11_);fill:#FBC02D;}
	.st40{clip-path:url(#SVGID_13_);fill:#E53935;}
	.st41{clip-path:url(#SVGID_15_);fill:#FBC02D;}
</style><g><path class="st7" d="M33.8,77.5l5.1,5.1L50,71.6l-5.1-5.1l0,0l-2.3-2.3c-1.9-1.9-2.8-4.3-2.8-6.9c0-2.3,0.8-4.4,2.1-6l0,0l0,0l0,0   l0,0c1.8-2.3,4.6-3.8,7.7-3.8c2.6,0,5.1,1,7,2.9l2.3,2.2l5.1,5.2L75,46.7l-5.2-5.1l-2.3-2.2c-4.6-4.6-11-7.5-18-7.5   C35.4,31.8,24,43.2,24,57.3c0,3.5,0.7,6.8,2,9.9c1.3,3.1,3.2,5.8,5.5,8.1L33.8,77.5"/><polyline class="st3" points="59.2,84.6 75,68.8 63.9,57.7 50,71.6 50,71.6 38.9,82.6 44.9,88.6 50,93.7 55.3,88.4  "/><polygon class="st4" points="86.1,107.6 111.1,82.6 100,71.6 75,96.5 61.1,82.7 50,93.7 63.9,107.6 63.9,107.7 75,118.2 75,118.2    75,118.2 86.1,107.6 86.1,107.6  "/><path class="st2" d="M118.5,75.2c5.2-5.2,8.2-13.1,7.3-21.2c-1.2-12.2-11.3-21.3-23.6-22.2c-7.7-0.5-14.8,2.4-19.8,7.4L63.9,57.7   L75,68.8l18.6-18.5c2.2-2.2,5.4-3.2,8.5-2.7c4.1,0.6,7.5,4.1,8.1,8.2c0.4,3.1-0.6,6.1-2.8,8.3l-7.4,7.4l11.1,11.1L118.5,75.2z"/></g></svg>