<?xml version="1.0" ?><svg id="Capa_1" style="enable-background:new 0 0 150 150;" version="1.1" viewBox="0 0 150 150" xml:space="preserve" xmlns="http://www.w3.org/2000/svg" xmlns:xlink="http://www.w3.org/1999/xlink"><style type="text/css">
	.st0{fill:#1A73E8;}
	.st1{fill:#EA4335;}
	.st2{fill:#4285F4;}
	.st3{fill:#FBBC04;}
	.st4{fill:#34A853;}
	.st5{fill:#4CAF50;}
	.st6{fill:#1E88E5;}
	.st7{fill:#E53935;}
	.st8{fill:#C62828;}
	.st9{fill:#FBC02D;}
	.st10{fill:#1565C0;}
	.st11{fill:#2E7D32;}
	.st12{fill:#F6B704;}
	.st13{fill:#E54335;}
	.st14{fill:#4280EF;}
	.st15{fill:#34A353;}
	.st16{clip-path:url(#SVGID_2_);}
	.st17{fill:#188038;}
	.st18{opacity:0.2;fill:#FFFFFF;enable-background:new    ;}
	.st19{opacity:0.3;fill:#0D652D;enable-background:new    ;}
	.st20{clip-path:url(#SVGID_4_);}
	.st21{opacity:0.3;fill:url(#_45_shadow_1_);enable-background:new    ;}
	.st22{clip-path:url(#SVGID_6_);}
	.st23{fill:#FA7B17;}
	.st24{opacity:0.3;fill:#174EA6;enable-background:new    ;}
	.st25{opacity:0.3;fill:#A50E0E;enable-background:new    ;}
	.st26{opacity:0.3;fill:#E37400;enable-background:new    ;}
	.st27{fill:url(#Finish_mask_1_);}
	.st28{fill:#FFFFFF;}
	.st29{fill:#0C9D58;}
	.st30{opacity:0.2;fill:#004D40;enable-background:new    ;}
	.st31{opacity:0.2;fill:#3E2723;enable-background:new    ;}
	.st32{fill:#FFC107;}
	.st33{opacity:0.2;fill:#1A237E;enable-background:new    ;}
	.st34{opacity:0.2;}
	.st35{fill:#1A237E;}
	.st36{fill:url(#SVGID_7_);}
	.st37{fill:#FBBC05;}
	.st38{clip-path:url(#SVGID_9_);fill:#E53935;}
	.st39{clip-path:url(#SVGID_11_);fill:#FBC02D;}
	.st40{clip-path:url(#SVGID_13_);fill:#E53935;}
	.st41{clip-path:url(#SVGID_15_);fill:#FBC02D;}
</style><g><path class="st6" d="M103,53.1c3.9,0,7.1-3.2,7.1-7.1s-3.2-7.1-7.1-7.1c-3.9,0-7.1,3.2-7.1,7.1S99.1,53.1,103,53.1z M52.6,50.9   l21.8-21.8c1.7-1.7,4-2.7,6.5-2.7h32.4c5.1,0,9.2,4.1,9.2,9.2c0,0,0,0,0,0.1V68c0,2.5-1,4.9-2.7,6.5L98.1,96.3L52.6,50.9z"/><path class="st5" d="M98.1,96.3l-26.9,26.9c-1.7,1.7-4,2.7-6.6,2.7s-4.9-1.1-6.5-2.7L25.7,90.9c-1.7-1.7-2.7-4-2.7-6.5   c0-2.6,1.1-4.9,2.7-6.6l26.9-26.9L98.1,96.3z"/><path class="st9" d="M41.4,106.6L25.7,90.9c-1.7-1.7-2.7-4-2.7-6.5c0-2.6,1.1-4.9,2.7-6.6l26.9-26.9l22.2,22.2L41.4,106.6z"/><path class="st7" d="M119.4,28.6c-1.7-1.5-3.8-2.2-6.1-2.2H81c-2.5,0-4.9,1-6.5,2.7L52.6,50.9l22.2,22.2l22.7-22.7   c-1.1-1.3-1.6-2.9-1.6-4.5c0-3.9,3.2-7.1,7.1-7.1c1.7,0,3.3,0.6,4.5,1.6L119.4,28.6z"/><circle class="st2" cx="74.9" cy="75.7" r="14.4"/><path class="st28" d="M94.5,71.4H75.3v8.2h11.1c-1,5.2-5.3,8.2-11.1,8.2c-6.7,0-12.2-5.6-12.2-12.6s5.4-12.6,12.2-12.6   c2.9,0,5.5,1.1,7.6,2.8l6-6.2C85.3,56,80.6,54,75.3,54c-11.4,0-20.6,9.5-20.6,21.3s9.2,21.3,20.6,21.3c10.3,0,19.7-7.8,19.7-21.3   C95,74,94.8,72.7,94.5,71.4L94.5,71.4z"/></g></svg>