<?xml version="1.0" ?><svg id="Capa_1" style="enable-background:new 0 0 150 150;" version="1.1" viewBox="0 0 150 150" xml:space="preserve" xmlns="http://www.w3.org/2000/svg" xmlns:xlink="http://www.w3.org/1999/xlink"><style type="text/css">
	.st0{fill:#1A73E8;}
	.st1{fill:#EA4335;}
	.st2{fill:#4285F4;}
	.st3{fill:#FBBC04;}
	.st4{fill:#34A853;}
	.st5{fill:#4CAF50;}
	.st6{fill:#1E88E5;}
	.st7{fill:#E53935;}
	.st8{fill:#C62828;}
	.st9{fill:#FBC02D;}
	.st10{fill:#1565C0;}
	.st11{fill:#2E7D32;}
	.st12{fill:#F6B704;}
	.st13{fill:#E54335;}
	.st14{fill:#4280EF;}
	.st15{fill:#34A353;}
	.st16{clip-path:url(#SVGID_2_);}
	.st17{fill:#188038;}
	.st18{opacity:0.2;fill:#FFFFFF;enable-background:new    ;}
	.st19{opacity:0.3;fill:#0D652D;enable-background:new    ;}
	.st20{clip-path:url(#SVGID_4_);}
	.st21{opacity:0.3;fill:url(#_45_shadow_1_);enable-background:new    ;}
	.st22{clip-path:url(#SVGID_6_);}
	.st23{fill:#FA7B17;}
	.st24{opacity:0.3;fill:#174EA6;enable-background:new    ;}
	.st25{opacity:0.3;fill:#A50E0E;enable-background:new    ;}
	.st26{opacity:0.3;fill:#E37400;enable-background:new    ;}
	.st27{fill:url(#Finish_mask_1_);}
	.st28{fill:#FFFFFF;}
	.st29{fill:#0C9D58;}
	.st30{opacity:0.2;fill:#004D40;enable-background:new    ;}
	.st31{opacity:0.2;fill:#3E2723;enable-background:new    ;}
	.st32{fill:#FFC107;}
	.st33{opacity:0.2;fill:#1A237E;enable-background:new    ;}
	.st34{opacity:0.2;}
	.st35{fill:#1A237E;}
	.st36{fill:url(#SVGID_7_);}
	.st37{fill:#FBBC05;}
	.st38{clip-path:url(#SVGID_9_);fill:#E53935;}
	.st39{clip-path:url(#SVGID_11_);fill:#FBC02D;}
	.st40{clip-path:url(#SVGID_13_);fill:#E53935;}
	.st41{clip-path:url(#SVGID_15_);fill:#FBC02D;}
</style><g><path class="st4" d="M104.3,89.4c0,1.4-1.1,2.5-2.5,2.5H48.3c-1.4,0-2.5-1.1-2.5-2.5V37c0-1.4,1.1-2.5,2.5-2.5h53.5   c1.4,0,2.5,1.1,2.5,2.5L104.3,89.4L104.3,89.4z"/><path class="st7" d="M58.7,87.8c-0.4,1.3,0.4,2.7,1.6,3.1l49.5,13.3c1.2,0.3,2.6-0.5,2.9-1.8l11.7-43.5c0.4-1.3-0.4-2.7-1.6-3.1   L73.3,42.5c-1.2-0.3-2.6,0.5-2.9,1.8L58.7,87.8z"/><path class="st3" d="M97.7,82.5c0.5,1.3-0.1,2.7-1.3,3.2l-52.2,19c-1.2,0.4-2.6-0.3-3.1-1.6L25.7,60.7c-0.5-1.3,0.1-2.7,1.3-3.2   l52.2-19c1.2-0.4,2.6,0.3,3.1,1.6L97.7,82.5z"/><path class="st18" d="M25.9,61.3c-0.5-1.3,0.1-2.7,1.3-3.2l52.2-19c1.2-0.4,2.6,0.3,3,1.5l-0.2-0.5c-0.5-1.3-1.9-2-3.1-1.6L27,57.6   c-1.2,0.4-1.8,1.9-1.3,3.2l15.4,42.3c0,0,0,0,0,0L25.9,61.3z"/><path class="st2" d="M113.3,113c0,1.4-1.1,2.5-2.5,2.5H39.3c-1.4,0-2.5-1.1-2.5-2.5V59c0-1.4,1.1-2.5,2.5-2.5h71.4   c1.4,0,2.5,1.1,2.5,2.5V113z"/><path class="st28" d="M99.6,77.8H78.2v-5.6h21.4c0.6,0,1.1,0.5,1.1,1.1v3.4C100.7,77.3,100.2,77.8,99.6,77.8z"/><path class="st28" d="M99.6,99.2H78.2v-5.6h21.4c0.6,0,1.1,0.5,1.1,1.1v3.4C100.7,98.7,100.2,99.2,99.6,99.2z"/><path class="st28" d="M103,88.5H78.2v-5.6H103c0.6,0,1.1,0.5,1.1,1.1v3.4C104.1,88,103.6,88.5,103,88.5z"/><path class="st28" d="M59.1,83.4v5.1h7.3c-0.6,3.1-3.3,5.3-7.3,5.3c-4.4,0-8-3.7-8-8.2c0-4.4,3.6-8.2,8-8.2c2,0,3.8,0.7,5.2,2v0   l3.9-3.9c-2.3-2.2-5.4-3.5-9-3.5c-7.5,0-13.5,6-13.5,13.5c0,7.5,6,13.5,13.5,13.5C66.9,99.2,72,93.7,72,86c0-0.9-0.1-1.7-0.2-2.6   H59.1z"/></g></svg>