<?xml version="1.0" ?><svg id="Capa_1" style="enable-background:new 0 0 150 150;" version="1.1" viewBox="0 0 150 150" xml:space="preserve" xmlns="http://www.w3.org/2000/svg" xmlns:xlink="http://www.w3.org/1999/xlink"><style type="text/css">
	.st0{fill:#1A73E8;}
	.st1{fill:#EA4335;}
	.st2{fill:#4285F4;}
	.st3{fill:#FBBC04;}
	.st4{fill:#34A853;}
	.st5{fill:#4CAF50;}
	.st6{fill:#1E88E5;}
	.st7{fill:#E53935;}
	.st8{fill:#C62828;}
	.st9{fill:#FBC02D;}
	.st10{fill:#1565C0;}
	.st11{fill:#2E7D32;}
	.st12{fill:#F6B704;}
	.st13{fill:#E54335;}
	.st14{fill:#4280EF;}
	.st15{fill:#34A353;}
	.st16{clip-path:url(#SVGID_2_);}
	.st17{fill:#188038;}
	.st18{opacity:0.2;fill:#FFFFFF;enable-background:new    ;}
	.st19{opacity:0.3;fill:#0D652D;enable-background:new    ;}
	.st20{clip-path:url(#SVGID_4_);}
	.st21{opacity:0.3;fill:url(#_45_shadow_1_);enable-background:new    ;}
	.st22{clip-path:url(#SVGID_6_);}
	.st23{fill:#FA7B17;}
	.st24{opacity:0.3;fill:#174EA6;enable-background:new    ;}
	.st25{opacity:0.3;fill:#A50E0E;enable-background:new    ;}
	.st26{opacity:0.3;fill:#E37400;enable-background:new    ;}
	.st27{fill:url(#Finish_mask_1_);}
	.st28{fill:#FFFFFF;}
	.st29{fill:#0C9D58;}
	.st30{opacity:0.2;fill:#004D40;enable-background:new    ;}
	.st31{opacity:0.2;fill:#3E2723;enable-background:new    ;}
	.st32{fill:#FFC107;}
	.st33{opacity:0.2;fill:#1A237E;enable-background:new    ;}
	.st34{opacity:0.2;}
	.st35{fill:#1A237E;}
	.st36{fill:url(#SVGID_7_);}
	.st37{fill:#FBBC05;}
	.st38{clip-path:url(#SVGID_9_);fill:#E53935;}
	.st39{clip-path:url(#SVGID_11_);fill:#FBC02D;}
	.st40{clip-path:url(#SVGID_13_);fill:#E53935;}
	.st41{clip-path:url(#SVGID_15_);fill:#FBC02D;}
</style><g><path class="st12" d="M50.4,48.2C64,48.2,75,59.2,75,72.8v2.3H28.1c-1.2,0-2.2-1-2.3-2.3C25.9,59.2,36.9,48.2,50.4,48.2z"/><path class="st13" d="M101.8,50.4c0,13.6-11,24.6-24.6,24.6H75V28.1c0-1.2,1-2.3,2.2-2.3C90.8,25.9,101.8,36.9,101.8,50.4   L101.8,50.4z"/><path class="st14" d="M99.6,101.8C86,101.8,75,90.8,75,77.3V75h46.9c1.2,0,2.3,1,2.3,2.2C124.1,90.8,113.1,101.8,99.6,101.8z"/><path class="st15" d="M48.2,99.6C48.2,86,59.2,75,72.8,75H75v46.9c0,1.2-1,2.2-2.3,2.3C59.2,124.1,48.2,113.1,48.2,99.6z"/></g></svg>