<svg width="5067" height="5067" xmlns="http://www.w3.org/2000/svg">

 <g>
  <title>background</title>
  <rect fill="none" id="canvas_background" height="402" width="582" y="-1" x="-1"/>
 </g>
 <g>
  <title>Layer 1</title>
  <rect fill="#87898c" id="svg_1" width="5067" ry="489" rx="489" height="5067" class="fil0"/>
  <path fill="#fefefe" id="svg_2" d="m3110,2497l-933,504l0,-776l0,-236l421,229l512,279zm1116,-684c0,0 -33,-248 -137,-357c-131,-144 -278,-145 -346,-153c-483,-36 -1208,-36 -1208,-36l-2,0c0,0 -725,0 -1209,36c-67,8 -214,9 -346,153c-103,109 -137,357 -137,357c0,0 -35,292 -35,583l0,36l0,238c0,291 35,583 35,583c0,0 34,248 137,357c132,144 304,139 381,154c277,28 1175,36 1175,36c0,0 726,-1 1209,-37c68,-9 215,-9 346,-153c104,-109 137,-357 137,-357c0,0 35,-292 35,-583l0,-223l0,-51c0,-291 -35,-583 -35,-583z" class="fil1"/>
 </g>
</svg>